<?xml version="1.0" encoding="UTF-8" standalone="no"?>
<svg
   xmlns:dc="http://purl.org/dc/elements/1.1/"
   xmlns:cc="http://creativecommons.org/ns#"
   xmlns:rdf="http://www.w3.org/1999/02/22-rdf-syntax-ns#"
   xmlns:svg="http://www.w3.org/2000/svg"
   xmlns="http://www.w3.org/2000/svg"
   xmlns:sodipodi="http://sodipodi.sourceforge.net/DTD/sodipodi-0.dtd"
   xmlns:inkscape="http://www.inkscape.org/namespaces/inkscape"
   width="3072"
   height="3840"
   viewBox="0 0 812.79998 1016"
   version="1.1"
   id="svg8"
   inkscape:version="1.0.1 (c497b03c, 2020-09-10)"
   sodipodi:docname="background.svg">
  <defs
     id="defs2" />
  <sodipodi:namedview
     id="base"
     pagecolor="#ffffff"
     bordercolor="#666666"
     borderopacity="1.0"
     inkscape:pageopacity="0.0"
     inkscape:pageshadow="2"
     inkscape:zoom="0.30048147"
     inkscape:cx="3459.695"
     inkscape:cy="2616.6894"
     inkscape:document-units="mm"
     inkscape:current-layer="layer1"
     inkscape:document-rotation="0"
     showgrid="false"
     units="px"
     inkscape:window-width="1680"
     inkscape:window-height="1005"
     inkscape:window-x="0"
     inkscape:window-y="23"
     inkscape:window-maximized="1" />
  <metadata
     id="metadata5">
    <rdf:RDF>
      <cc:Work
         rdf:about="">
        <dc:format>image/svg+xml</dc:format>
        <dc:type
           rdf:resource="http://purl.org/dc/dcmitype/StillImage" />
        <dc:title></dc:title>
      </cc:Work>
    </rdf:RDF>
  </metadata>
  <g
     inkscape:label="Layer 1"
     inkscape:groupmode="layer"
     id="layer1">
    <rect
       style="fill:#162d50;stroke-width:0.374193"
       id="rect10"
       width="812.79999"
       height="1014.6386"
       x="0"
       y="-8.8817842e-16"
       inkscape:export-xdpi="96"
       inkscape:export-ydpi="96" />
    <path
       sodipodi:type="star"
       style="fill:#ffdc0f;fill-opacity:1;stroke-width:0.264583"
       id="path12"
       sodipodi:sides="5"
       sodipodi:cx="270.69211"
       sodipodi:cy="145.425"
       sodipodi:r1="179.6067"
       sodipodi:r2="69.598145"
       sodipodi:arg1="0.85347462"
       sodipodi:arg2="1.4766551"
       inkscape:flatsided="false"
       inkscape:rounded="0"
       inkscape:randomized="0"
       d="M 388.75994,280.77106 277.23449,214.71497 178.45533,299.53842 206.81514,173.05895 95.618808,105.32628 224.67159,93.213761 254.72764,-33.470788 306.12683,85.52273 435.89882,74.96005 338.61249,160.61461 Z"
       inkscape:transform-center-x="4.6322883"
       inkscape:transform-center-y="0.15339859"
       transform="matrix(0.29258168,-0.0636077,0.05768436,0.26533557,98.168886,104.28482)" />
    <path
       sodipodi:type="star"
       style="fill:#ffdc0f;fill-opacity:1;stroke-width:0.264583"
       id="path839"
       sodipodi:sides="5"
       sodipodi:cx="270.69211"
       sodipodi:cy="145.425"
       sodipodi:r1="179.6067"
       sodipodi:r2="69.598145"
       sodipodi:arg1="0.85347462"
       sodipodi:arg2="1.4766551"
       inkscape:flatsided="false"
       inkscape:rounded="0"
       inkscape:randomized="0"
       d="M 388.75994,280.77106 277.23449,214.71497 178.45533,299.53842 206.81514,173.05895 95.618808,105.32628 224.67159,93.213761 254.72764,-33.470788 306.12683,85.52273 435.89882,74.96005 338.61249,160.61461 Z"
       inkscape:transform-center-x="-0.8199986"
       inkscape:transform-center-y="-1.4747035"
       transform="matrix(0.15687243,0.03179284,-0.02883219,0.14226399,6.0218373,42.630915)" />
    <path
       sodipodi:type="star"
       style="fill:#ffdc0f;fill-opacity:1;stroke-width:0.264583"
       id="path841"
       sodipodi:sides="5"
       sodipodi:cx="270.69211"
       sodipodi:cy="145.425"
       sodipodi:r1="179.6067"
       sodipodi:r2="69.598145"
       sodipodi:arg1="0.85347462"
       sodipodi:arg2="1.4766551"
       inkscape:flatsided="false"
       inkscape:rounded="0"
       inkscape:randomized="0"
       d="M 388.75994,280.77106 277.23449,214.71497 178.45533,299.53842 206.81514,173.05895 95.618808,105.32628 224.67159,93.213761 254.72764,-33.470788 306.12683,85.52273 435.89882,74.96005 338.61249,160.61461 Z"
       inkscape:transform-center-x="-0.8199986"
       inkscape:transform-center-y="-1.4747035"
       transform="matrix(0.15687243,0.03179284,-0.02883219,0.14226399,6.0218373,42.630915)" />
    <path
       sodipodi:type="star"
       style="fill:#ffdc0f;fill-opacity:1;stroke-width:0.264583"
       id="path843"
       sodipodi:sides="5"
       sodipodi:cx="270.69211"
       sodipodi:cy="145.425"
       sodipodi:r1="179.6067"
       sodipodi:r2="69.598145"
       sodipodi:arg1="0.85347462"
       sodipodi:arg2="1.4766551"
       inkscape:flatsided="false"
       inkscape:rounded="0"
       inkscape:randomized="0"
       d="M 388.75994,280.77106 277.23449,214.71497 178.45533,299.53842 206.81514,173.05895 95.618808,105.32628 224.67159,93.213761 254.72764,-33.470788 306.12683,85.52273 435.89882,74.96005 338.61249,160.61461 Z"
       inkscape:transform-center-x="-0.68351464"
       inkscape:transform-center-y="-1.2292412"
       transform="matrix(0.13076184,0.02650109,-0.02403322,0.1185849,28.759078,179.5174)" />
    <path
       sodipodi:type="star"
       style="fill:#ffdc0f;fill-opacity:1;stroke-width:0.264583"
       id="path845"
       sodipodi:sides="5"
       sodipodi:cx="270.69211"
       sodipodi:cy="145.425"
       sodipodi:r1="179.6067"
       sodipodi:r2="69.598145"
       sodipodi:arg1="0.85347462"
       sodipodi:arg2="1.4766551"
       inkscape:flatsided="false"
       inkscape:rounded="0"
       inkscape:randomized="0"
       d="M 388.75994,280.77106 277.23449,214.71497 178.45533,299.53842 206.81514,173.05895 95.618808,105.32628 224.67159,93.213761 254.72764,-33.470788 306.12683,85.52273 435.89882,74.96005 338.61249,160.61461 Z"
       inkscape:transform-center-x="1.1228078"
       inkscape:transform-center-y="-0.99253154"
       transform="matrix(0.13309579,-0.00929927,0.0084333,0.12070151,93.794185,290.40785)" />
    <path
       sodipodi:type="star"
       style="fill:#ffdc0f;fill-opacity:1;stroke-width:0.264583"
       id="path847"
       sodipodi:sides="5"
       sodipodi:cx="270.69211"
       sodipodi:cy="145.425"
       sodipodi:r1="179.6067"
       sodipodi:r2="69.598145"
       sodipodi:arg1="0.85347462"
       sodipodi:arg2="1.4766551"
       inkscape:flatsided="false"
       inkscape:rounded="0"
       inkscape:randomized="0"
       d="M 388.75994,280.77106 277.23449,214.71497 178.45533,299.53842 206.81514,173.05895 95.618808,105.32628 224.67159,93.213761 254.72764,-33.470788 306.12683,85.52273 435.89882,74.96005 338.61249,160.61461 Z"
       inkscape:transform-center-x="-2.1228329"
       inkscape:transform-center-y="-0.034893724"
       transform="matrix(0.14919056,0.05702413,-0.05171385,0.13529749,29.918427,391.58449)" />
    <path
       sodipodi:type="star"
       style="fill:#ffdc0f;fill-opacity:1;stroke-width:0.264583"
       id="path849"
       sodipodi:sides="5"
       sodipodi:cx="270.69211"
       sodipodi:cy="145.425"
       sodipodi:r1="179.6067"
       sodipodi:r2="69.598145"
       sodipodi:arg1="0.85347462"
       sodipodi:arg2="1.4766551"
       inkscape:flatsided="false"
       inkscape:rounded="0"
       inkscape:randomized="0"
       d="M 388.75994,280.77106 277.23449,214.71497 178.45533,299.53842 206.81514,173.05895 95.618808,105.32628 224.67159,93.213761 254.72764,-33.470788 306.12683,85.52273 435.89882,74.96005 338.61249,160.61461 Z"
       inkscape:transform-center-x="-0.40985966"
       inkscape:transform-center-y="-1.4767506"
       transform="matrix(0.12864665,0.02083454,-0.01889434,0.11666668,292.27517,25.638629)" />
    <path
       sodipodi:type="star"
       style="fill:#ffdc0f;fill-opacity:1;stroke-width:0.264583"
       id="path851"
       sodipodi:sides="5"
       sodipodi:cx="270.69211"
       sodipodi:cy="145.425"
       sodipodi:r1="179.6067"
       sodipodi:r2="69.598145"
       sodipodi:arg1="0.85347462"
       sodipodi:arg2="1.4766551"
       inkscape:flatsided="false"
       inkscape:rounded="0"
       inkscape:randomized="0"
       d="M 388.75994,280.77106 277.23449,214.71497 178.45533,299.53842 206.81514,173.05895 95.618808,105.32628 224.67159,93.213761 254.72764,-33.470788 306.12683,85.52273 435.89882,74.96005 338.61249,160.61461 Z"
       inkscape:transform-center-x="2.1825495"
       inkscape:transform-center-y="0.25926308"
       transform="matrix(0.12656243,-0.03108039,0.02818611,0.11477654,526.05394,97.018059)" />
    <path
       sodipodi:type="star"
       style="fill:#ffdc0f;fill-opacity:1;stroke-width:0.264583"
       id="path853"
       sodipodi:sides="5"
       sodipodi:cx="270.69211"
       sodipodi:cy="145.425"
       sodipodi:r1="179.6067"
       sodipodi:r2="69.598145"
       sodipodi:arg1="0.85347462"
       sodipodi:arg2="1.4766551"
       inkscape:flatsided="false"
       inkscape:rounded="0"
       inkscape:randomized="0"
       d="M 388.75994,280.77106 277.23449,214.71497 178.45533,299.53842 206.81514,173.05895 95.618808,105.32628 224.67159,93.213761 254.72764,-33.470788 306.12683,85.52273 435.89882,74.96005 338.61249,160.61461 Z"
       inkscape:transform-center-x="-1.019224"
       inkscape:transform-center-y="-0.81935433"
       transform="matrix(0.12614252,0.032743,-0.02969384,0.11439575,626.46009,21.688459)" />
    <path
       sodipodi:type="star"
       style="fill:#ffdc0f;fill-opacity:1;stroke-width:0.264583"
       id="path855"
       sodipodi:sides="5"
       sodipodi:cx="270.69211"
       sodipodi:cy="145.425"
       sodipodi:r1="179.6067"
       sodipodi:r2="69.598145"
       sodipodi:arg1="0.85347462"
       sodipodi:arg2="1.4766551"
       inkscape:flatsided="false"
       inkscape:rounded="0"
       inkscape:randomized="0"
       d="M 388.75994,280.77106 277.23449,214.71497 178.45533,299.53842 206.81514,173.05895 95.618808,105.32628 224.67159,93.213761 254.72764,-33.470788 306.12683,85.52273 435.89882,74.96005 338.61249,160.61461 Z"
       inkscape:transform-center-x="-2.1228329"
       inkscape:transform-center-y="-0.034893724"
       transform="matrix(0.14919056,0.05702413,-0.05171385,0.13529749,666.37714,88.544199)" />
    <path
       sodipodi:type="star"
       style="fill:#ffdc0f;fill-opacity:1;stroke-width:0.264583"
       id="path857"
       sodipodi:sides="5"
       sodipodi:cx="270.69211"
       sodipodi:cy="145.425"
       sodipodi:r1="179.6067"
       sodipodi:r2="69.598145"
       sodipodi:arg1="0.85347462"
       sodipodi:arg2="1.4766551"
       inkscape:flatsided="false"
       inkscape:rounded="0"
       inkscape:randomized="0"
       d="M 388.75994,280.77106 277.23449,214.71497 178.45533,299.53842 206.81514,173.05895 95.618808,105.32628 224.67159,93.213761 254.72764,-33.470788 306.12683,85.52273 435.89882,74.96005 338.61249,160.61461 Z"
       inkscape:transform-center-x="2.1247965"
       inkscape:transform-center-y="0.13835741"
       transform="matrix(0.13009982,-0.02958045,0.02682584,0.11798453,714.31148,261.46922)" />
    <path
       sodipodi:type="star"
       style="fill:#ffdc0f;fill-opacity:1;stroke-width:0.264583"
       id="path859"
       sodipodi:sides="5"
       sodipodi:cx="270.69211"
       sodipodi:cy="145.425"
       sodipodi:r1="179.6067"
       sodipodi:r2="69.598145"
       sodipodi:arg1="0.85347462"
       sodipodi:arg2="1.4766551"
       inkscape:flatsided="false"
       inkscape:rounded="0"
       inkscape:randomized="0"
       d="M 388.75994,280.77106 277.23449,214.71497 178.45533,299.53842 206.81514,173.05895 95.618808,105.32628 224.67159,93.213761 254.72764,-33.470788 306.12683,85.52273 435.89882,74.96005 338.61249,160.61461 Z"
       inkscape:transform-center-x="1.169037"
       inkscape:transform-center-y="-0.94152183"
       transform="matrix(0.13302763,-0.01022815,0.00927568,0.1206397,666.42888,409.22025)" />
  </g>
</svg>
